<svg xmlns="http://www.w3.org/2000/svg" xmlns:xlink="http://www.w3.org/1999/xlink" width="16" height="16" viewBox="0 0 16 16">
  <defs>
    <clipPath id="clip-path">
      <rect id="Rectangle_2" data-name="Rectangle 2" width="16" height="16" transform="translate(27 113)" fill="#4415cb"/>
    </clipPath>
  </defs>
  <g id="Mask_Group_17" data-name="Mask Group 17" transform="translate(-27 -113)" clip-path="url(#clip-path)">
    <g id="_9035331_calendar_outline_icon" data-name="9035331_calendar_outline_icon" transform="translate(25.857 111.857)">
      <rect id="Rectangle_40" data-name="Rectangle 40" width="14.857" height="14.714" rx="1.714" transform="translate(1.714 1.857)" fill="none" stroke="#4415cb" stroke-linejoin="round" stroke-width="1.143"/>
      <circle id="Ellipse_9" data-name="Ellipse 9" cx="0.857" cy="0.857" r="0.857" transform="translate(9.714 6.429)" fill="#4415cb"/>
      <circle id="Ellipse_10" data-name="Ellipse 10" cx="0.857" cy="0.857" r="0.857" transform="translate(12.571 6.429)" fill="#4415cb"/>
      <circle id="Ellipse_11" data-name="Ellipse 11" cx="0.857" cy="0.857" r="0.857" transform="translate(9.714 9.286)" fill="#4415cb"/>
      <circle id="Ellipse_12" data-name="Ellipse 12" cx="0.857" cy="0.857" r="0.857" transform="translate(12.571 9.286)" fill="#4415cb"/>
      <circle id="Ellipse_13" data-name="Ellipse 13" cx="0.857" cy="0.857" r="0.857" transform="translate(4 9.286)" fill="#4415cb"/>
      <circle id="Ellipse_14" data-name="Ellipse 14" cx="0.857" cy="0.857" r="0.857" transform="translate(6.857 9.286)" fill="#4415cb"/>
      <circle id="Ellipse_15" data-name="Ellipse 15" cx="0.857" cy="0.857" r="0.857" transform="translate(4 12.143)" fill="#4415cb"/>
      <circle id="Ellipse_16" data-name="Ellipse 16" cx="0.857" cy="0.857" r="0.857" transform="translate(6.857 12.143)" fill="#4415cb"/>
      <circle id="Ellipse_17" data-name="Ellipse 17" cx="0.857" cy="0.857" r="0.857" transform="translate(9.714 12.143)" fill="#4415cb"/>
      <line id="Line_64" data-name="Line 64" y2="0.966" transform="translate(4.571 2.146)" fill="none" stroke="#4415cb" stroke-linecap="round" stroke-linejoin="round" stroke-width="1.143"/>
      <line id="Line_65" data-name="Line 65" y2="0.966" transform="translate(13.714 2.146)" fill="none" stroke="#4415cb" stroke-linecap="round" stroke-linejoin="round" stroke-width="1.143"/>
      <line id="Line_66" data-name="Line 66" x1="14.857" transform="translate(1.714 4.714)" fill="none" stroke="#4415cb" stroke-linejoin="round" stroke-width="1.143"/>
    </g>
  </g>
</svg>
