<svg xmlns="http://www.w3.org/2000/svg" xmlns:xlink="http://www.w3.org/1999/xlink" width="16" height="16" viewBox="0 0 16 16">
  <defs>
    <clipPath id="clip-path">
      <rect id="Rectangle_1" data-name="Rectangle 1" width="16" height="16" transform="translate(17 67)"/>
    </clipPath>
  </defs>
  <g id="Mask_Group_6" data-name="Mask Group 6" transform="translate(-17 -67)" clip-path="url(#clip-path)">
    <path id="_9034324_dashboard_icon" data-name="9034324_dashboard_icon" d="M4.061,1.846H4a3.241,3.241,0,0,0-.738.051A1.846,1.846,0,0,0,1.9,3.261,3.241,3.241,0,0,0,1.846,4V7.077a3.241,3.241,0,0,0,.051.738A1.846,1.846,0,0,0,3.261,9.18,3.241,3.241,0,0,0,4,9.231H7.077a3.241,3.241,0,0,0,.738-.051A1.846,1.846,0,0,0,9.18,7.815a3.241,3.241,0,0,0,.051-.738V4a3.241,3.241,0,0,0-.051-.738A1.846,1.846,0,0,0,7.815,1.9a3.241,3.241,0,0,0-.738-.051H4.061ZM3.549,3.094a2.9,2.9,0,0,1,.513-.017H7.015a2.9,2.9,0,0,1,.513.017.615.615,0,0,1,.455.455A2.9,2.9,0,0,1,8,4.061V7.015a2.9,2.9,0,0,1-.017.513.615.615,0,0,1-.455.455A2.9,2.9,0,0,1,7.015,8H4.061a2.9,2.9,0,0,1-.513-.017.615.615,0,0,1-.455-.455,2.9,2.9,0,0,1-.017-.513V4.061a2.9,2.9,0,0,1,.017-.513A.615.615,0,0,1,3.549,3.094Zm9.128-1.248h-.062a3.241,3.241,0,0,0-.738.051,1.846,1.846,0,0,0-1.364,1.364A3.241,3.241,0,0,0,10.461,4V7.077a3.241,3.241,0,0,0,.051.738A1.846,1.846,0,0,0,11.877,9.18a3.241,3.241,0,0,0,.738.051h3.078a3.242,3.242,0,0,0,.738-.051A1.846,1.846,0,0,0,17.8,7.815a3.242,3.242,0,0,0,.051-.738V4a3.242,3.242,0,0,0-.051-.738A1.846,1.846,0,0,0,16.431,1.9a3.242,3.242,0,0,0-.738-.051H12.677Zm-.513,1.248a2.9,2.9,0,0,1,.513-.017h2.954a2.9,2.9,0,0,1,.513.017.615.615,0,0,1,.455.455,2.9,2.9,0,0,1,.017.513V7.015a2.9,2.9,0,0,1-.017.513.616.616,0,0,1-.455.455A2.9,2.9,0,0,1,15.631,8H12.677a2.9,2.9,0,0,1-.513-.017.615.615,0,0,1-.455-.455,2.9,2.9,0,0,1-.017-.513V4.061a2.9,2.9,0,0,1,.017-.513A.615.615,0,0,1,12.164,3.094ZM4,10.461H7.077a3.241,3.241,0,0,1,.738.051A1.846,1.846,0,0,1,9.18,11.877a3.241,3.241,0,0,1,.051.738v3.078a3.242,3.242,0,0,1-.051.738A1.846,1.846,0,0,1,7.815,17.8a3.242,3.242,0,0,1-.738.051H4a3.242,3.242,0,0,1-.738-.051A1.846,1.846,0,0,1,1.9,16.431a3.242,3.242,0,0,1-.051-.738V12.615a3.241,3.241,0,0,1,.051-.738,1.846,1.846,0,0,1,1.364-1.364A3.241,3.241,0,0,1,4,10.461Zm.062,1.231a2.9,2.9,0,0,0-.513.017.615.615,0,0,0-.455.455,2.9,2.9,0,0,0-.017.513v2.954a2.9,2.9,0,0,0,.017.513.615.615,0,0,0,.455.455,2.9,2.9,0,0,0,.513.017H7.015a2.9,2.9,0,0,0,.513-.017.616.616,0,0,0,.455-.455A2.9,2.9,0,0,0,8,15.631V12.677a2.9,2.9,0,0,0-.017-.513.615.615,0,0,0-.455-.455,2.9,2.9,0,0,0-.513-.017Zm8.615-1.231h-.062a3.241,3.241,0,0,0-.738.051,1.846,1.846,0,0,0-1.364,1.364,3.241,3.241,0,0,0-.051.738v3.078a3.241,3.241,0,0,0,.051.738A1.846,1.846,0,0,0,11.877,17.8a3.242,3.242,0,0,0,.738.051h3.078a3.242,3.242,0,0,0,.738-.051A1.847,1.847,0,0,0,17.8,16.431a3.242,3.242,0,0,0,.051-.738V12.615a3.242,3.242,0,0,0-.051-.738,1.846,1.846,0,0,0-1.364-1.364,3.241,3.241,0,0,0-.738-.051H12.677Zm-.513,1.248a2.9,2.9,0,0,1,.513-.017h2.954a2.9,2.9,0,0,1,.513.017.615.615,0,0,1,.455.455,2.9,2.9,0,0,1,.017.513v2.954a2.9,2.9,0,0,1-.017.513.616.616,0,0,1-.455.455,2.9,2.9,0,0,1-.513.017H12.677a2.9,2.9,0,0,1-.513-.017.615.615,0,0,1-.455-.455,2.9,2.9,0,0,1-.017-.513V12.677a2.9,2.9,0,0,1,.017-.513A.615.615,0,0,1,12.164,11.709Z" transform="translate(15.154 65.154)" fill-rule="evenodd"/>
  </g>
</svg>
