<svg xmlns="http://www.w3.org/2000/svg" xmlns:xlink="http://www.w3.org/1999/xlink" width="16" height="16" viewBox="0 0 16 16">
  <defs>
    <clipPath id="clip-path">
      <rect id="Rectangle_1905" data-name="Rectangle 1905" width="16" height="16" transform="translate(1012.647 255.647)" fill="#8d8d8d"/>
    </clipPath>
  </defs>
  <g id="Mask_Group_3566" data-name="Mask Group 3566" transform="translate(-1012.647 -255.647)" clip-path="url(#clip-path)">
    <g id="Layer_17" data-name="Layer 17" transform="translate(1013.973 255.946)">
      <path id="Path_3902" data-name="Path 3902" d="M13.922,18.476H5.707a1.54,1.54,0,0,1-1.54-1.54V7.18a.513.513,0,0,1,1.027,0v9.755a.513.513,0,0,0,.513.513h8.215a.513.513,0,0,0,.513-.513V7.18a.513.513,0,0,1,1.027,0v9.755a1.54,1.54,0,0,1-1.54,1.54Z" transform="translate(-3.14 -3.073)" fill="#8d8d8d"/>
      <path id="Path_3903" data-name="Path 3903" d="M15.336,5.194H3.013a.513.513,0,1,1,0-1.027H15.336a.513.513,0,1,1,0,1.027Z" transform="translate(-2.5 -2.113)" fill="#8d8d8d"/>
      <path id="Path_3904" data-name="Path 3904" d="M13.788,3.914a.513.513,0,0,1-.513-.513V1.86H10.194V3.4a.513.513,0,1,1-1.027,0V1.347A.513.513,0,0,1,9.68.833h4.107a.513.513,0,0,1,.513.513V3.4A.513.513,0,0,1,13.788,3.914Z" transform="translate(-5.059 -0.833)" fill="#8d8d8d"/>
      <path id="Path_3905" data-name="Path 3905" d="M13.013,16.548a.513.513,0,0,1-.513-.513V8.847a.513.513,0,1,1,1.027,0v7.188A.513.513,0,0,1,13.013,16.548Z" transform="translate(-6.339 -3.712)" fill="#8d8d8d"/>
      <path id="Path_3906" data-name="Path 3906" d="M17.18,16.161a.513.513,0,0,1-.513-.513V10.513a.513.513,0,1,1,1.027,0v5.134A.513.513,0,0,1,17.18,16.161Z" transform="translate(-7.938 -4.352)" fill="#8d8d8d"/>
      <path id="Path_3907" data-name="Path 3907" d="M8.847,16.161a.513.513,0,0,1-.513-.513V10.513a.513.513,0,1,1,1.027,0v5.134A.513.513,0,0,1,8.847,16.161Z" transform="translate(-4.739 -4.352)" fill="#8d8d8d"/>
    </g>
  </g>
</svg>
