<svg xmlns="http://www.w3.org/2000/svg" width="25.242" height="19.959" viewBox="0 0 25.242 19.959">
  <g id="_7089160_google_meet_icon" data-name="7089160_google_meet_icon" transform="translate(-3 -7)">
    <rect id="Rectangle_10" data-name="Rectangle 10" width="10" height="8" transform="translate(9.121 21.979) rotate(-90)" fill="#fff"/>
    <path id="Path_1" data-name="Path 1" d="M3,16.587v8.218l2.935.587,2.935-.587V16.587L5.935,16Z" transform="translate(0 -3.717)" fill="#1e88e5"/>
    <path id="Path_2" data-name="Path 2" d="M26.675,23.587v8.218a1.761,1.761,0,0,1-1.761,1.761H12.587L12,30.631l.587-2.935h8.218V23.587L23.74,23Z" transform="translate(-3.717 -6.608)" fill="#4caf50"/>
    <path id="Path_3" data-name="Path 3" d="M26.675,8.761v8.218h-5.87V12.87H12.587L12,9.935,12.587,7H24.914A1.761,1.761,0,0,1,26.675,8.761Z" transform="translate(-3.717)" fill="#fbc02d"/>
    <path id="Path_4" data-name="Path 4" d="M8.87,31v5.87H4.761A1.761,1.761,0,0,1,3,35.109V31Z" transform="translate(0 -9.912)" fill="#1565c0"/>
    <path id="Path_5" data-name="Path 5" d="M8.87,7v5.87H3Z" transform="translate(0)" fill="#e53935"/>
    <path id="Path_6" data-name="Path 6" d="M33.457,20.51l-.587,4.96L27,20.51l5.87-4.96Z" transform="translate(-9.912 -3.531)" fill="#2e7d32"/>
    <path id="Path_7" data-name="Path 7" d="M42.283,9.7V26a.588.588,0,0,1-.957.458L37,22.809V12.889l4.326-3.651A.588.588,0,0,1,42.283,9.7Z" transform="translate(-14.041 -0.87)" fill="#4caf50"/>
  </g>
</svg>
