<svg xmlns="http://www.w3.org/2000/svg" xmlns:xlink="http://www.w3.org/1999/xlink" width="16" height="16" viewBox="0 0 16 16">
  <defs>
    <clipPath id="clip-path">
      <path id="Path_17" data-name="Path 17" d="M0,0H16V16H0Z" transform="translate(385 191)" fill="#fff"/>
    </clipPath>
  </defs>
  <g id="Mask_Group_4" data-name="Mask Group 4" transform="translate(-385 -191)" clip-path="url(#clip-path)">
    <g id="_7720229_robot_bot_face_icon" data-name="7720229_robot_bot_face_icon" transform="translate(383.857 190.238)">
      <path id="Path_8" data-name="Path 8" d="M14.714,16.762H3.571a2.286,2.286,0,0,1-2.286-2.286V3.333A2.286,2.286,0,0,1,3.571,1.048H14.714A2.286,2.286,0,0,1,17,3.333V14.476A2.286,2.286,0,0,1,14.714,16.762ZM3.571,2.571a.762.762,0,0,0-.762.762V14.476a.762.762,0,0,0,.762.762H14.714a.762.762,0,0,0,.762-.762V3.333a.762.762,0,0,0-.762-.762Z" fill="#fff"/>
      <path id="Path_9" data-name="Path 9" d="M6.857,9.9A.762.762,0,0,1,6.1,9.143V7.619a.762.762,0,0,1,1.524,0V9.143A.762.762,0,0,1,6.857,9.9Z" transform="translate(0 -1.381)" fill="#fff"/>
      <path id="Path_10" data-name="Path 10" d="M11.429,9.9a.762.762,0,0,1-.762-.762V7.619a.762.762,0,1,1,1.524,0V9.143A.762.762,0,0,1,11.429,9.9Z" transform="translate(0 -1.381)" fill="#fff"/>
      <path id="Path_12" data-name="Path 12" d="M11.429,12.714a3.984,3.984,0,0,1-2.242,1,4.394,4.394,0,0,1-2.329-1s-.762-.341-.762-.762a.762.762,0,0,1,.762-.762,4.311,4.311,0,0,0,2.312,1,4.062,4.062,0,0,0,2.259-1,.762.762,0,0,1,.762.762C12.19,12.373,11.429,12.714,11.429,12.714Z" transform="translate(0 -1.381)" fill="#fff"/>
    </g>
  </g>
</svg>
