<svg xmlns="http://www.w3.org/2000/svg" width="17.22" height="21.521" viewBox="0 0 17.22 21.521">
  <g id="Layer_30" data-name="Layer 30" transform="translate(-4.003 -1)">
    <path id="Path_5295" data-name="Path 5295" d="M20.5,20.5H4.718a.717.717,0,0,1-.638-1.04A13.013,13.013,0,0,0,5.436,13.72V11.174a7.174,7.174,0,0,1,14.348,0v2.532a13.013,13.013,0,0,0,1.356,5.739A.717.717,0,0,1,20.5,20.5ZM5.83,19.065H19.389a14.448,14.448,0,0,1-1.04-5.359V11.174a5.739,5.739,0,1,0-11.478,0v2.532a14.448,14.448,0,0,1-1.04,5.359Z" transform="translate(0 -0.848)" fill="#4415cb"/>
    <path id="Path_5296" data-name="Path 5296" d="M14.587,29.3A3.587,3.587,0,0,1,11,25.717a.717.717,0,1,1,1.435,0,2.152,2.152,0,0,0,.631,1.521,2.21,2.21,0,0,0,3.042,0,.72.72,0,1,1,1.019,1.019A3.587,3.587,0,0,1,14.587,29.3Z" transform="translate(-1.978 -6.783)" fill="#4415cb"/>
    <path id="Path_5297" data-name="Path 5297" d="M15.717,4.587A.717.717,0,0,1,15,3.87V1.717a.717.717,0,1,1,1.435,0V3.87A.717.717,0,0,1,15.717,4.587Z" transform="translate(-3.108)" fill="#4415cb"/>
  </g>
</svg>
