<svg xmlns="http://www.w3.org/2000/svg" width="18" height="18" viewBox="0 0 18 18">
  <g id="_1" data-name="1" transform="translate(-54.094 -48.02)">
    <path id="Path_5287" data-name="Path 5287" d="M67.285,66.02a8.893,8.893,0,0,1-2.077-.262A16.06,16.06,0,0,1,54.357,54.907c-.6-2.467-.171-4.577,1.2-5.945l.39-.39a1.889,1.889,0,0,1,2.669,0l2.244,2.243a1.888,1.888,0,0,1,0,2.669l-1.325,1.325A16.374,16.374,0,0,0,65.3,60.582l1.325-1.325a1.887,1.887,0,0,1,2.669,0L71.541,61.5a1.888,1.888,0,0,1,0,2.669l-.391.39A5.3,5.3,0,0,1,67.285,66.02ZM57.278,49.362a.537.537,0,0,0-.385.159l-.391.39c-1.024,1.024-1.323,2.686-.842,4.678a14.728,14.728,0,0,0,9.862,9.862c1.992.481,3.654.182,4.678-.842l.39-.39a.544.544,0,0,0,0-.77l-2.243-2.243a.544.544,0,0,0-.77,0L65.9,61.886a.672.672,0,0,1-.784.122A17.461,17.461,0,0,1,58.105,55a.672.672,0,0,1,.121-.784l1.68-1.679a.544.544,0,0,0,0-.77l-2.243-2.244A.54.54,0,0,0,57.278,49.362Z" transform="translate(0 0)" fill="#9ca3af"/>
    <path id="Path_5288" data-name="Path 5288" d="M241.243,131.88a.667.667,0,0,1-.667-.666,4.415,4.415,0,0,0-4.41-4.41.666.666,0,0,1,0-1.333,5.75,5.75,0,0,1,5.743,5.743A.666.666,0,0,1,241.243,131.88Z" transform="translate(-173.25 -73.968)" fill="#9ca3af"/>
    <path id="Path_5289" data-name="Path 5289" d="M244.06,71.3a.666.666,0,0,1-.666-.666,7.236,7.236,0,0,0-7.227-7.227.666.666,0,0,1,0-1.333,8.57,8.57,0,0,1,8.56,8.56A.667.667,0,0,1,244.06,71.3Z" transform="translate(-173.209 -13.426)" fill="#9ca3af"/>
  </g>
</svg>
