<svg xmlns="http://www.w3.org/2000/svg" width="21.596" height="24.681" viewBox="0 0 21.596 24.681">
  <path id="_8541621_bell_alert_icon" data-name="8541621_bell_alert_icon" d="M10.8,24.681A3.085,3.085,0,0,0,13.881,21.6H7.713A3.085,3.085,0,0,0,10.8,24.681ZM21.18,17.464c-.931-1-2.674-2.506-2.674-7.437a7.612,7.612,0,0,0-6.167-7.479v-1a1.542,1.542,0,1,0-3.083,0v1a7.612,7.612,0,0,0-6.167,7.479c0,4.931-1.743,6.437-2.674,7.437A1.506,1.506,0,0,0,0,18.51a1.544,1.544,0,0,0,1.547,1.543h18.5a1.544,1.544,0,0,0,1.547-1.543A1.505,1.505,0,0,0,21.18,17.464Z" transform="translate(0.001)" fill="#ec6666"/>
</svg>
