<svg xmlns="http://www.w3.org/2000/svg" xmlns:xlink="http://www.w3.org/1999/xlink" width="16" height="16" viewBox="0 0 16 16">
  <defs>
    <clipPath id="clip-path">
      <rect id="Rectangle_22" data-name="Rectangle 22" width="16" height="16" transform="translate(49.576 490.537)" fill="#4415cb"/>
    </clipPath>
  </defs>
  <g id="Mask_Group_11" data-name="Mask Group 11" transform="translate(-49.576 -490.537)" clip-path="url(#clip-path)">
    <g id="_8685554_ic_fluent_bot_filled_icon" data-name="8685554_ic_fluent_bot_filled_icon" transform="translate(51.1 490.537)">
      <path id="Path_22" data-name="Path 22" d="M15.854,15.817A1.785,1.785,0,0,1,17.639,17.6v.68h-.005A3.474,3.474,0,0,1,16.526,20.8c-.943.861-2.572,1.423-5.3,1.423s-4.357-.563-5.3-1.423a3.474,3.474,0,0,1-1.108-2.521H4.812V17.6A1.785,1.785,0,0,1,6.6,15.817Z" transform="translate(-4.812 -6.44)" fill="#4415cb"/>
      <path id="Path_23" data-name="Path 23" d="M8.355,3.737a1.48,1.48,0,0,0-1.48,1.48V9.163a1.48,1.48,0,0,0,1.48,1.48h6.907a1.48,1.48,0,0,0,1.48-1.48V5.217a1.48,1.48,0,0,0-1.48-1.48H12.3V3.243a.474.474,0,0,0-.493-.493.5.5,0,0,0-.493.493v.493ZM8.848,7.19a.987.987,0,1,1,.987.987A.987.987,0,0,1,8.848,7.19Zm3.947,0a.987.987,0,1,1,.987.987A.987.987,0,0,1,12.8,7.19Z" transform="translate(-5.395 -2.75)" fill="#4415cb"/>
    </g>
  </g>
</svg>
