<svg xmlns="http://www.w3.org/2000/svg" xmlns:xlink="http://www.w3.org/1999/xlink" width="85" height="85" viewBox="0 0 85 85">
  <defs>
    <clipPath id="clip-path">
      <rect id="Rectangle_58" data-name="Rectangle 58" width="85" height="85" transform="translate(206 89)" fill="#e7ebee"/>
    </clipPath>
  </defs>
  <g id="Mask_Group_21" data-name="Mask Group 21" transform="translate(-206 -89)" clip-path="url(#clip-path)">
    <path id="_8546961_salesforce_icon" data-name="8546961_salesforce_icon" d="M32.9,29.038H29.414a1.861,1.861,0,0,1,1.8-1.866C32.109,27.172,32.8,27.677,32.9,29.038ZM50.96,27.2c-.062,0-1.865-.234-1.865,2.644s1.8,2.644,1.865,2.644c1.718,0,1.865-1.79,1.865-2.644,0-2.876-1.806-2.644-1.865-2.644Zm-32.148,3.14a1.141,1.141,0,0,0-.435.964.989.989,0,0,0,.435.932c.621.489,1.992.28,2.766.126V30.126C20.875,29.984,19.367,29.867,18.812,30.344Zm65.78-3.109A18.281,18.281,0,0,1,62.735,45.268c-2.428,4.362-9.349,9.351-17.474,5.5-5.44,12.7-23.513,12.184-28.26-.683C1.177,53.245-6.634,31.8,7.053,23.747A16.436,16.436,0,0,1,35.189,7.237a14.851,14.851,0,0,1,23.785,3.14A18.283,18.283,0,0,1,84.592,27.235Zm-68.672,4.2c0-1.554-1.545-2.005-2.362-2.269-.7-.279-1.772-.464-1.772-1.182,0-1.25,2.247-.88,3.327-.28,0,0,.155.094.217-.062.032-.093.312-.87.342-.964a.149.149,0,0,0-.093-.186c-1.63-1.008-5.38-1.125-5.38,1.679,0,1.647,1.519,2.041,2.363,2.269.624.209,1.741.4,1.741,1.15,0,.529-.467.933-1.212.933a4.2,4.2,0,0,1-2.511-.839c-.062-.03-.188-.094-.218.094l-.317.987c-.062.124.03.156.03.186a5.3,5.3,0,0,0,3.016.871c1.741,0,2.829-.933,2.829-2.394Zm4.23-5.628a5.584,5.584,0,0,0-2.829.685.132.132,0,0,0-.032.186l.342.933a.132.132,0,0,0,.156.093,5.223,5.223,0,0,1,2.238-.529,1.944,1.944,0,0,1,1.213.312c.476.37.4,1.1.4,1.4-.633-.04-2.526-.455-3.887.5a2.236,2.236,0,0,0-.97,1.922,2.157,2.157,0,0,0,.871,1.9c1.618,1.079,4.8.264,5.036.186.209-.042.467-.087.467-.248V28.664c.005-.609.042-2.86-3.011-2.86ZM26.3,23.037a.147.147,0,0,0-.156-.156h-1.3a.147.147,0,0,0-.155.156V33.479a.147.147,0,0,0,.155.156h1.306a.147.147,0,0,0,.156-.156Zm7.369,3.824a2.849,2.849,0,0,0-2.333-1A3.338,3.338,0,0,0,28.6,27.047a4.549,4.549,0,0,0-.87,2.83,4.085,4.085,0,0,0,.933,2.8,3.83,3.83,0,0,0,3.015,1.088,4.643,4.643,0,0,0,2.456-.5c.062-.032.094-.094.032-.248l-.311-.9a.167.167,0,0,0-.186-.093,4.751,4.751,0,0,1-2.021.373,2.029,2.029,0,0,1-2.239-2.207h4.913a.163.163,0,0,0,.155-.124,4.762,4.762,0,0,0-.8-3.2Zm4.85,6.964c1.741,0,2.83-.933,2.83-2.394,0-1.554-1.546-2.005-2.363-2.269-.547-.219-1.772-.447-1.772-1.182,0-.5.435-.839,1.12-.839a5.037,5.037,0,0,1,2.207.559s.156.094.218-.062c.03-.093.311-.87.341-.964a.149.149,0,0,0-.093-.186,5.048,5.048,0,0,0-2.674-.653,2.434,2.434,0,0,0-2.7,2.332c0,1.647,1.517,2.041,2.362,2.269.808.264,1.741.431,1.741,1.15,0,.529-.465.933-1.212.933a4.2,4.2,0,0,1-2.511-.839.132.132,0,0,0-.218.094l-.311.994c-.062.124.03.156.03.186a5.3,5.3,0,0,0,3.012.871ZM47.2,26.178c0-.094-.032-.156-.156-.156H45.488a3.391,3.391,0,0,1,.591-1.648c.55-.549,1.554-.217,1.586-.217.155.062.186,0,.217-.062l.374-1.027c.093-.124,0-.155-.032-.186a3.328,3.328,0,0,0-3.233.56,4.768,4.768,0,0,0-1.057,2.58h-1.12a.169.169,0,0,0-.155.156L42.472,27.2c0,.093.032.155.156.155h1.088c-1.125,6.331-1.157,6.637-1.368,7.338a1.513,1.513,0,0,1-.777,1.026A1.914,1.914,0,0,1,40.3,35.69s-.124-.062-.186.094c-.032.094-.342.9-.374,1s0,.186.062.186a3.829,3.829,0,0,0,2.363,0,2.68,2.68,0,0,0,1.524-1.71c.363-1.019.371-1.294,1.554-7.9h1.617a.171.171,0,0,0,.156-.156Zm7.057,2.115a3.508,3.508,0,0,0-6.652,0,5.691,5.691,0,0,0,0,3.109,3.507,3.507,0,0,0,6.652,0,5.633,5.633,0,0,0,0-3.109Zm6-2.207a2.855,2.855,0,0,0-2.922.715v-.591a.147.147,0,0,0-.156-.155H55.935a.147.147,0,0,0-.156.155v7.307a.148.148,0,0,0,.156.156h1.274a.148.148,0,0,0,.156-.156V29.846a2.784,2.784,0,0,1,.589-1.989,1.941,1.941,0,0,1,1.772-.4.208.208,0,0,0,.186-.124,9.78,9.78,0,0,0,.4-1.057.153.153,0,0,0-.062-.186Zm6.187,7.151-.28-.964c-.062-.156-.186-.094-.186-.094a4.312,4.312,0,0,1-1.492.25c-.613,0-2.269-.149-2.269-2.612,0-.823.245-2.612,2.177-2.612a4.606,4.606,0,0,1,1.523.218s.124.062.156-.094c.124-.342.217-.591.342-1,.03-.124-.062-.155-.094-.155a5.325,5.325,0,0,0-3.669,0A3.646,3.646,0,0,0,60.5,29.816a3.633,3.633,0,0,0,3.825,3.98,5.875,5.875,0,0,0,2.051-.374.172.172,0,0,0,.062-.188Zm7.12-5.224a2.9,2.9,0,0,0-2.954-2.145,3.266,3.266,0,0,0-3.389,2.457A5.1,5.1,0,0,0,67,29.879c0,3.419,2.49,3.886,3.949,3.886a4.647,4.647,0,0,0,2.456-.5c.062-.032.094-.094.032-.248l-.312-.9a.167.167,0,0,0-.186-.093,4.751,4.751,0,0,1-2.021.373,2.027,2.027,0,0,1-2.238-2.207h4.912a.165.165,0,0,0,.156-.124,6.7,6.7,0,0,0-.186-2.054Zm-3.078-.839a1.858,1.858,0,0,0-1.8,1.866h3.485c-.116-1.576-1.007-1.868-1.683-1.868Z" transform="translate(206 100.887)" fill="#00abe1"/>
  </g>
</svg>
