<svg xmlns="http://www.w3.org/2000/svg" width="316" height="301" viewBox="0 0 316 301">
  <g id="Group_14470" data-name="Group 14470" transform="translate(-979 -316)">
    <text id="May" transform="translate(1206 601)" fill="#7c828a" font-size="12" font-family="NunitoSans-Regular, Nunito Sans"><tspan x="6.98" y="12">AUG</tspan></text>
    <text id="May-2" data-name="May" transform="translate(1255 601)" fill="#7c828a" font-size="12" font-family="NunitoSans-Regular, Nunito Sans"><tspan x="8.936" y="12">SEP</tspan></text>
    <text id="Apr" transform="translate(1158 601)" fill="#7c828a" font-size="12" font-family="NunitoSans-Regular, Nunito Sans"><tspan x="10.46" y="12">JUL</tspan></text>
    <text id="Mar" transform="translate(1111 601)" fill="#7c828a" font-size="12" font-family="NunitoSans-Regular, Nunito Sans"><tspan x="9.266" y="12">JUN</tspan></text>
    <text id="Feb" transform="translate(1063 601)" fill="#7c828a" font-size="12" font-family="NunitoSans-Regular, Nunito Sans"><tspan x="7.454" y="12">MAY</tspan></text>
    <text id="Jan" transform="translate(1012 601)" fill="#7c828a" font-size="12" font-family="NunitoSans-Regular, Nunito Sans"><tspan x="7.652" y="12">APR</tspan></text>
    <text id="_0" data-name="0" transform="translate(993 562.863)" fill="#7c828a" font-size="12" font-family="NunitoSans-Regular, Nunito Sans"><tspan x="7.168" y="12">0 K</tspan></text>
    <text id="_250" data-name="250" transform="translate(983 481)" fill="#7c828a" font-size="12" font-family="NunitoSans-Regular, Nunito Sans"><tspan x="2.768" y="12">250 K</tspan></text>
    <text id="_500" data-name="500" transform="translate(983 398)" fill="#7c828a" font-size="12" font-family="NunitoSans-Regular, Nunito Sans"><tspan x="2.768" y="12">750 K</tspan></text>
    <text id="_750" data-name="750" transform="translate(979 316)" fill="#7c828a" font-size="12" font-family="NunitoSans-Regular, Nunito Sans"><tspan x="-35.328" y="12" xml:space="preserve">950  K</tspan></text>
    <path id="Line_Copy_14" data-name="Line Copy 14" d="M.5,1l268.682.5" transform="translate(1023.798 582.919)" fill="none" stroke="#d6d9dc" stroke-linecap="square" stroke-miterlimit="10" stroke-width="1" opacity="0.4"/>
    <path id="Line_Copy_15" data-name="Line Copy 15" d="M.5,1l268.682.5" transform="translate(1023.798 405.086)" fill="none" stroke="#d6d9dc" stroke-linecap="square" stroke-miterlimit="10" stroke-width="1" opacity="0.4"/>
    <path id="Line_Copy_16" data-name="Line Copy 16" d="M.5,1l268.682.5" transform="translate(1023.798 484.672)" fill="none" stroke="#d6d9dc" stroke-linecap="square" stroke-miterlimit="10" stroke-width="1" opacity="0.4"/>
    <path id="Line_Copy_17" data-name="Line Copy 17" d="M.5,1l268.682.5" transform="translate(1023.798 321.473)" fill="none" stroke="#d6d9dc" stroke-linecap="square" stroke-miterlimit="10" stroke-width="1" opacity="0.4"/>
    <path id="Area_2_Copy_3" data-name="Area_2 Copy 3" d="M270.521,14.907c-15.509,13.41-29.7,12.022-44.952,12.022-22.878,0-28.973,44.73-51.852,44.73S158.838,64,135.96,64" transform="translate(901.256 410.679)" fill="none" stroke="#1940d9" stroke-miterlimit="10" stroke-width="1"/>
    <path id="Area_2_Copy_3-2" data-name="Area_2 Copy 3" d="M270.521,14.907c-17.71,20.921-23.431,6.216-45.345,19.279-14.748,8.791-15.3,22.48-25.053,28.486-4.394,2.709-9.778,4.487-17.259,4.487-22.878,0-27.5,4.273-33.635,9.651" transform="translate(1022.459 348.846)" fill="none" stroke="#4caf50" stroke-miterlimit="10" stroke-width="1" stroke-dasharray="2"/>
    <text id="Actual" transform="translate(1086 434)" fill="#4415cb" font-size="12" font-family="NunitoSans-Regular, Nunito Sans"><tspan x="-17.22" y="0">Actual</tspan></text>
    <text id="Projected" transform="translate(1209 376)" fill="#4caf50" font-size="12" font-family="NunitoSans-Regular, Nunito Sans"><tspan x="-25.326" y="0">Projected</tspan></text>
  </g>
</svg>
