<svg xmlns="http://www.w3.org/2000/svg" xmlns:xlink="http://www.w3.org/1999/xlink" width="18" height="18" viewBox="0 0 18 18">
  <defs>
    <clipPath id="clip-path">
      <rect id="Rectangle_19" data-name="Rectangle 19" width="18" height="18" transform="translate(0 -0.099)" fill="#7f8488"/>
    </clipPath>
  </defs>
  <g id="Mask_Group_16" data-name="Mask Group 16" transform="translate(0 0.099)" clip-path="url(#clip-path)">
    <g id="icons" transform="translate(0 1.82)">
      <path id="share" d="M19.512,9.172l-5.935-5.4c-.45-.45-.989,0-.989.719v2.7a10.721,10.721,0,0,0-9.531,6.114A13.762,13.762,0,0,0,1.8,16.995c-.18.9,1.169,1.349,1.708.54a10.766,10.766,0,0,1,9.082-5.215v2.967c0,.719.54,1.169.989.719l5.935-5.4A1.094,1.094,0,0,0,19.512,9.172Z" transform="translate(-1.782 -3.597)" fill="#7f8488"/>
    </g>
  </g>
</svg>
