<svg xmlns="http://www.w3.org/2000/svg" width="24" height="24" viewBox="0 0 24 24">
  <g id="_4781857_arrow_arrows_back_direction_left_icon_5_" data-name="4781857_arrow_arrows_back_direction_left_icon (5)" transform="translate(0 -0.376)">
    <g id="Layer_2" data-name="Layer 2" transform="translate(2.281 4.567)">
      <path id="Path_4305" data-name="Path 4305" d="M10.616,21.234a.762.762,0,0,1-.541-.221L3.22,14.158a.762.762,0,0,1,0-1.082L10.075,6.22A.765.765,0,1,1,11.157,7.3L4.834,13.617l6.323,6.315a.762.762,0,0,1-.541,1.3Z" transform="translate(-2.994 -5.996)"/>
      <path id="Path_4306" data-name="Path 4306" d="M22.044,16.524H3.762a.762.762,0,0,1,0-1.524H22.044a.762.762,0,0,1,0,1.524Z" transform="translate(-2.996 -8.141)"/>
    </g>
    <g id="frame">
      <rect id="Rectangle_65" data-name="Rectangle 65" width="24" height="24" transform="translate(0 0.376)" fill="none"/>
    </g>
  </g>
</svg>
