<svg xmlns="http://www.w3.org/2000/svg" width="21.596" height="24.681" viewBox="0 0 21.596 24.681">
  <path id="_8665078_calendar_days_icon" data-name="8665078_calendar_days_icon" d="M7.713,1.543V3.085h6.17V1.543a1.543,1.543,0,1,1,3.085,0V3.085h2.314A2.314,2.314,0,0,1,21.6,5.4V7.713H0V5.4A2.314,2.314,0,0,1,2.314,3.085H4.628V1.543a1.543,1.543,0,1,1,3.085,0ZM0,9.255H21.6V22.367a2.314,2.314,0,0,1-2.314,2.314H2.314A2.314,2.314,0,0,1,0,22.367Zm3.085,5.4a.772.772,0,0,0,.771.771H5.4a.774.774,0,0,0,.771-.771V13.112A.774.774,0,0,0,5.4,12.34H3.856a.772.772,0,0,0-.771.771Zm6.17,0a.774.774,0,0,0,.771.771h1.543a.774.774,0,0,0,.771-.771V13.112a.774.774,0,0,0-.771-.771H10.027a.774.774,0,0,0-.771.771ZM16.2,12.34a.774.774,0,0,0-.771.771v1.543a.774.774,0,0,0,.771.771h1.543a.774.774,0,0,0,.771-.771V13.112a.774.774,0,0,0-.771-.771ZM3.085,20.824a.772.772,0,0,0,.771.771H5.4a.774.774,0,0,0,.771-.771V19.282a.774.774,0,0,0-.771-.771H3.856a.772.772,0,0,0-.771.771Zm6.941-2.314a.774.774,0,0,0-.771.771v1.543a.774.774,0,0,0,.771.771h1.543a.774.774,0,0,0,.771-.771V19.282a.774.774,0,0,0-.771-.771Zm5.4,2.314a.774.774,0,0,0,.771.771h1.543a.774.774,0,0,0,.771-.771V19.282a.774.774,0,0,0-.771-.771H16.2a.774.774,0,0,0-.771.771Z" fill="#df3939"/>
</svg>
