<svg xmlns="http://www.w3.org/2000/svg" xmlns:xlink="http://www.w3.org/1999/xlink" width="18" height="18" viewBox="0 0 18 18">
  <defs>
    <clipPath id="clip-path">
      <rect id="Rectangle_34" data-name="Rectangle 34" width="18" height="18" fill="#e7ebee"/>
    </clipPath>
  </defs>
  <g id="Mask_Group_14" data-name="Mask Group 14" clip-path="url(#clip-path)">
    <g id="_510932_calendar_date_event_schedule_icon_1_" data-name="510932_calendar_date_event_schedule_icon (1)" transform="translate(0.015 -0.5)">
      <path id="Path_27" data-name="Path 27" d="M21.96,7.217H19.8V5.4H18V7.217H10.8V5.4H9V7.217H6.869a1.44,1.44,0,0,0-1.44,1.44v13.3a1.44,1.44,0,0,0,1.44,1.44H21.96a1.44,1.44,0,0,0,1.44-1.44V8.657A1.44,1.44,0,0,0,21.96,7.217ZM21.6,21.6H7.2v-9H21.6Zm0-10.8H7.2V9H21.6Z" transform="translate(-5.429 -5.4)" fill="#b7b7b7"/>
      <rect id="Rectangle_30" data-name="Rectangle 30" width="1.8" height="1.8" transform="translate(8.251 9)" fill="#b7b7b7"/>
      <rect id="Rectangle_31" data-name="Rectangle 31" width="1.8" height="1.8" transform="translate(11.851 9)" fill="#b7b7b7"/>
      <rect id="Rectangle_32" data-name="Rectangle 32" width="1.8" height="1.8" transform="translate(8.251 12.6)" fill="#b7b7b7"/>
      <rect id="Rectangle_33" data-name="Rectangle 33" width="1.8" height="1.8" transform="translate(4.651 12.6)" fill="#b7b7b7"/>
    </g>
  </g>
</svg>
