<svg xmlns="http://www.w3.org/2000/svg" width="54.912" height="78.263" viewBox="0 0 54.912 78.263">
  <path id="Path_4300" data-name="Path 4300" d="M108.029,101.546c-.029.214-.1.545-.152.552l.033-.483-.022-.022v-.076A38.223,38.223,0,0,0,108,95.8l.022.04-.025-.12c-.018-.265-.036-.526-.058-.788a.6.6,0,0,1,.058.232c.033-.545-.084-.472-.065-.94,0-.054,0-.029.025,0l-.1-.519c.036.1.08-.1.1.225-.018-.955-.327-1.5-.28-1.866l.022.076c-.127-.646-.182-.668-.207-.654s-.029.022-.054,0c-.047-.211-.091-.418-.142-.624l.058-.461-.123-.1c-.033-.131-.1-.392-.051-.363-.207-.468-.018.091-.16-.171a6.072,6.072,0,0,0-.309-1.122,1.713,1.713,0,0,1-.189-.766c-.149-.2.156.606-.127-.029.105-.254-.334-.726-.49-1.314.149.134.33.675.167.091a1.088,1.088,0,0,1-.189-.29c-.065-.116-.123-.258-.185-.4a6.441,6.441,0,0,0-.363-.817c-.058,0-.207-.214-.4-.537l-.316-.537c-.123-.182-.251-.363-.363-.537a4.192,4.192,0,0,0-.461-.748c-.294-.41-.65-.908-.908-1.209h.033a1.563,1.563,0,0,1-.479-.4c-.2-.218-.461-.454-.675-.661.065-.033.163.025.414.229l-.4-.4a4.8,4.8,0,0,1-.53-.41l.163.029c-.28-.247-.577-.476-.89-.726A12.483,12.483,0,0,1,99.5,78.4c-.062.025.163.3.073.316l-.414-.305a.333.333,0,0,1,.2.073,2.886,2.886,0,0,1-.4-.261l.363.167c-.338-.272-.225-.076-.5-.28.044-.047-.185-.182-.116-.2a3.193,3.193,0,0,0,.363.247,9.587,9.587,0,0,1-.8-.65c0,.047-.044.073-.294-.069-.635-.385-.174-.2-.53-.454-.178-.054-.574-.316-.632-.24a.727.727,0,0,1-.265-.225c-.363-.163-1.623-.77-1.271-.5l.087.047-.062-.025c-1.176-.432-2.382-1.06-3.591-1.376v-.029l-.559-.156-.577-.138a7.983,7.983,0,0,0-.991-.2c-.214-.047-.494-.171-.4-.185-.559-.094-.625-.094-1.423-.283.574.047-.185-.084.585.062a7.6,7.6,0,0,0-1.677-.283c.283-.044-.534-.182-.886-.207l.5.131c-.392-.04-.726-.105-1.089-.145l.2-.087a10.3,10.3,0,0,0-2.07-.167c-.323,0-.628,0-.926-.025a4.929,4.929,0,0,1-.875-.109c-.4.058.817.087.454.16-.69-.047-1.412-.229-1.634-.218-.962-.069-.893.167-1.892.163.131.04.254.116-.483.222-.693.047-.868-.084-.432-.152h.243c.221-.036.516-.076.236-.094l-.087.047a7.3,7.3,0,0,0-.755.029c-.254.029-.439.033-.334,0-.519.109-.214.094.174.062-.447.033-.8.073-1.144.131s-.7.131-1.158.2c.149,0,.29,0,.149.04a6.543,6.543,0,0,0-1.452.421c-.519.076.145-.185-.726.1-.556.105-.145-.069.065-.156a11.522,11.522,0,0,1-1.118.33c-.341.08-.639.145-.868.221l.41-.174c-.247.1-.45.178-.661.251h.265a1.561,1.561,0,0,1-.465.12c-.236.134.236.051-.24.294-.338.087-.962.432-1.111.381.958-.363,0-.087.563-.363a5.06,5.06,0,0,1-.476.185c-.04,0,.029-.033.091-.065-1,.32-.4.3-1.387.726.1-.109-.276,0-.425.1.388-.2.225,0-.113.211a5.687,5.687,0,0,0-.977.545c.127-.062.247-.127.363-.182a5.42,5.42,0,0,1-.8.541c-.058,0,.363-.24.207-.171-.421.338-1.089.519-1.7.973-.309.163-.087-.069-.363.08a4.673,4.673,0,0,1-.726.494,4.747,4.747,0,0,0-.726.534c.251-.091.272-.131-.178.3.363-.3.748-.617,1.136-.9-.24.2-.457.425-.686.639.174-.131.363-.28.512-.41a4.51,4.51,0,0,1,.428-.309c-.33.3-.3.258-.094.192a2.846,2.846,0,0,0-.726.512,7.111,7.111,0,0,1-.766.6l-.1-.16a7.064,7.064,0,0,0-1.126.969l-.577.581c-.192.2-.407.421-.654.65l.33-.287c-.076.178-.588.588-.853.94-.018-.073-.221.116-.363.229.04,0-.646.752-.624.929-.145.138-.3.272-.439.421a5.083,5.083,0,0,0-.624.973,5.929,5.929,0,0,1-.548.991c.116-.3-.185.076.16-.541a2.59,2.59,0,0,0-.341.581c-.134.16-.414.886-.621,1.136a1.536,1.536,0,0,1-.185.57h-.025c0,.084-.221.534-.022.28a4.069,4.069,0,0,0-.465.817,8.948,8.948,0,0,0-.41,1.006c-.116.363-.247.686-.363,1a6.007,6.007,0,0,1-.3.81,21.18,21.18,0,0,0-.443,2.335c0-.047-.033,0,0-.134-.211.937.084.6-.087,1.674-.152.545,0-.577-.073-.236-.105.062-.145.392-.145.8a6.678,6.678,0,0,1-.051,1.245v-.178a4.219,4.219,0,0,0,.051,1.017c.022.192.047.4.073.61s.08.432.105.657c0,0-.022-.04-.029,0,.1.3.178.748.3,1.216s.254.966.363,1.387c-.138-.247-.127-.363-.171-.2.047.192.073.156.113.167s.08.073.2.443a3.517,3.517,0,0,1,.073.908l-.2-.726a6.835,6.835,0,0,0,.345,1.3l-.062-.033c.363,1.089.479,1.057.868,2.208v-.131c.345.581.123.548.439,1.136l-.051.232c.171.407.679,1.383.991,2.1-.251-.363-.646-1.209-.9-1.721a11.932,11.932,0,0,0,.693,1.568,3.293,3.293,0,0,1-.232-.519,14.949,14.949,0,0,1,.94,1.881c-.142-.022.069.5.323,1.111a10.139,10.139,0,0,1,.628,1.623c.363.675.683,1.362,1.013,2.08s.672,1.47,1.089,2.258c-.116-.65.24.461.363.276a3.866,3.866,0,0,1,.272.541l-.033-.08.033.084.483,1.166c.091.29-.221-.327-.243-.272.414.81.105.363.341.933,0-.145.232.232.457.7l-.265-.686c.686,1.071.363,1.042,1.089,2.12l-.251-.327a22.541,22.541,0,0,0,1.63,2.6c.036.113.065.276-.091.029.755,1.38,1.888,2.948,2.425,4.045l-.1-.08a4.141,4.141,0,0,1,.483.726c-.025,0-.1-.076-.036.044a8.707,8.707,0,0,1,.624.966l-.218-.254a34.155,34.155,0,0,0,2.026,3.017c-.123.073.468,1.122.77,1.641h-.025c.926,1.525,1.71,2.5,2.647,3.859.421.948,1.834,2.948,2.669,4.357-.116-.221.113-.025.29.211.189.338.672.835.53.857l-.076-.116a6.637,6.637,0,0,0,.871,1.47H77c.7,1.485,2.465,3.46,2.792,4.31.065.073.127.152.2.232l.1.127.127.167c.218.291.428.574.61.792v-.022l-.022.142v.029l1.22-1.492c.276-.345.563-.726.962-1.253l-.113.258c.465-.6.363-.919.8-1.474L83.9,147a36.159,36.159,0,0,0,2.371-3.17c0,.033,0,.084-.109.261.363-.5,1.5-1.884,1.209-1.815a7.839,7.839,0,0,0,1.18-1.706v.142a6.709,6.709,0,0,1,.7-1.293c.109-.134.145-.113.051.022.334-.428.2-.428.668-1.024l-.127.28a2.994,2.994,0,0,0,.5-.875,4.666,4.666,0,0,1,.879-1.089,2.356,2.356,0,0,1,.414-.766c.054-.029,0,.105-.044.171.686-.911.868-1.452,1.372-2.066.033,0,.073-.033.116-.08-.5.755-.919,1.351-.882,1.293.065.047.49-.552.258,0a17.689,17.689,0,0,1,1.147-2.011.574.574,0,0,1,.076-.062l-.033.069a2.688,2.688,0,0,0,.236-.385q.526-.731,1.035-1.474c-.094-.022.178-.414-.127-.08.036-.044-.029.062-.156.269a1.446,1.446,0,0,0-.076.138v-.025l-.486.766a3.265,3.265,0,0,1,.512-.853c.051-.189.113-.4.152-.508.363-.363.948-1.129,1.089-1.2a22.909,22.909,0,0,0,1.576-2.934.969.969,0,0,1,.316-.363c-.08.167-.2.363-.225.447a11.467,11.467,0,0,0,.922-1.815c.454-.661-.134.443.407-.512l-.044.145c1.245-1.779,1.489-3.191,2.814-5.192a.89.89,0,0,1-.167.229c1.376-2.364,2.451-5.061,3.631-7.483a4.913,4.913,0,0,0,.4-1.26l.152-.12c.062-.261.127-.523.178-.788a9.163,9.163,0,0,1,.6-1.452,7.993,7.993,0,0,0,.559-1.728l-.116.16c.04-.123.091-.283.138-.45s.087-.363.127-.516c.083-.323.152-.57.178-.519a.77.77,0,0,1,.062-.363h.055c.087-.414.127-.842.185-1.26.113-.479.156-.432.207-.443s.051-.022.091-.127a3.082,3.082,0,0,0,.138-.657A3.913,3.913,0,0,0,108.029,101.546Zm-13.5,30.415a.086.086,0,0,1,0-.029.3.3,0,0,1,0,.105c-.123.211-.182.269-.214.287.051-.091.123-.2.214-.356ZM95.655,90a2.055,2.055,0,0,1-1.942,1.234,9.473,9.473,0,0,0-9.582,9.415h0a9.476,9.476,0,0,0,9.418,9.527,2.117,2.117,0,0,1,1.939,1.278,2.04,2.04,0,0,1-.407,2.233,18.354,18.354,0,1,1,.138-25.938,2.051,2.051,0,0,1,.436,2.258Zm12.2,4.048v.007Z" transform="translate(-53.161 -72.785)" fill="#f47729"/>
</svg>
