<svg xmlns="http://www.w3.org/2000/svg" xmlns:xlink="http://www.w3.org/1999/xlink" width="16" height="16" viewBox="0 0 16 16">
  <defs>
    <clipPath id="clip-path">
      <rect id="Rectangle_2332" data-name="Rectangle 2332" width="16" height="16" transform="translate(17 150)" fill="#4415cb"/>
    </clipPath>
  </defs>
  <g id="Mask_Group_3567" data-name="Mask Group 3567" transform="translate(-17 -150)" clip-path="url(#clip-path)">
    <path id="_9034528_mixer_vertical_icon" data-name="9034528_mixer_vertical_icon" d="M6.769,2.154a.615.615,0,0,0-1.231,0V8.923q0,.031,0,.061a3.078,3.078,0,0,0,0,6.032q0,.03,0,.061v1.846a.615.615,0,0,0,1.231,0V15.077q0-.031,0-.061a3.078,3.078,0,0,0,0-6.032q0-.03,0-.061Zm7.385,0a.615.615,0,1,0-1.231,0V4q0,.031,0,.061a3.078,3.078,0,0,0,0,6.032q0,.03,0,.061v6.769a.615.615,0,0,0,1.231,0V10.154q0-.031,0-.061a3.078,3.078,0,0,0,0-6.032q0-.03,0-.061Zm-8,8A1.846,1.846,0,1,0,8,12,1.846,1.846,0,0,0,6.154,10.154Zm5.538-3.077a1.846,1.846,0,1,1,1.846,1.846A1.846,1.846,0,0,1,11.692,7.077Z" transform="translate(15.154 148.462)" fill="#4415cb" fill-rule="evenodd"/>
  </g>
</svg>
