<svg xmlns="http://www.w3.org/2000/svg" width="24.245" height="15.586" viewBox="0 0 24.245 15.586">
  <g id="Group_1212" data-name="Group 1212" transform="translate(-2 -7)">
    <g id="Group_1210" data-name="Group 1210" transform="translate(2 7)">
      <path id="Path_4311" data-name="Path 4311" d="M14.123,22.586A13.41,13.41,0,0,1,4.28,18.181.866.866,0,0,1,5.546,17a11.694,11.694,0,0,0,8.577,3.856,12.067,12.067,0,0,0,10.252-6.061A12.066,12.066,0,0,0,14.123,8.732a12.14,12.14,0,0,0-10.5,6.488.866.866,0,1,1-1.507-.854A13.85,13.85,0,0,1,14.123,7a13.849,13.849,0,0,1,12.01,7.366.866.866,0,0,1,0,.853A13.85,13.85,0,0,1,14.123,22.586Z" transform="translate(-2 -7)" fill="#7f8488"/>
    </g>
    <g id="Group_1211" data-name="Group 1211" transform="translate(9.793 10.464)">
      <path id="Path_4312" data-name="Path 4312" d="M15.33,19.659a4.33,4.33,0,1,1,4.33-4.33A4.334,4.334,0,0,1,15.33,19.659Zm0-6.927a2.6,2.6,0,1,0,2.6,2.6A2.6,2.6,0,0,0,15.33,12.732Z" transform="translate(-11 -11)" fill="#7f8488"/>
    </g>
  </g>
</svg>
