<svg xmlns="http://www.w3.org/2000/svg" xmlns:xlink="http://www.w3.org/1999/xlink" width="16" height="16" viewBox="0 0 16 16">
  <defs>
    <clipPath id="clip-path">
      <rect id="Rectangle_11" data-name="Rectangle 11" width="16" height="16" transform="translate(385 191)" fill="#4415cb"/>
    </clipPath>
  </defs>
  <g id="Mask_Group_3" data-name="Mask Group 3" transform="translate(-385 -191)" clip-path="url(#clip-path)">
    <g id="_7720229_robot_bot_face_icon" data-name="7720229_robot_bot_face_icon" transform="translate(383.857 190.238)">
      <path id="Path_15" data-name="Path 15" d="M14.714,16.762H3.571a2.286,2.286,0,0,1-2.286-2.286V3.333A2.286,2.286,0,0,1,3.571,1.048H14.714A2.286,2.286,0,0,1,17,3.333V14.476A2.286,2.286,0,0,1,14.714,16.762ZM3.571,2.571a.762.762,0,0,0-.762.762V14.476a.762.762,0,0,0,.762.762H14.714a.762.762,0,0,0,.762-.762V3.333a.762.762,0,0,0-.762-.762Z" fill="#989898"/>
    </g>
    <g id="_8666606_arrow_right_icon" data-name="8666606_arrow_right_icon" transform="translate(361.867 167.801)">
      <line id="Line_67" data-name="Line 67" x2="6.878" transform="translate(27.929 31.368)" fill="none" stroke="#8b8b8b" stroke-linecap="round" stroke-linejoin="round" stroke-width="1.4"/>
      <path id="Path_32" data-name="Path 32" d="M67.029,27.929l3.439,3.439-3.439,3.439" transform="translate(-35.661)" fill="none" stroke="#8b8b8b" stroke-linecap="round" stroke-linejoin="round" stroke-width="1.4"/>
    </g>
  </g>
</svg>
