<svg xmlns="http://www.w3.org/2000/svg" xmlns:xlink="http://www.w3.org/1999/xlink" width="16" height="16" viewBox="0 0 16 16">
  <defs>
    <clipPath id="clip-path">
      <rect id="Rectangle_3" data-name="Rectangle 3" width="16" height="16" transform="translate(17 152)"/>
    </clipPath>
  </defs>
  <g id="Mask_Group_3569" data-name="Mask Group 3569" transform="translate(-17 -152)" clip-path="url(#clip-path)">
    <g id="Layer_30" data-name="Layer 30" transform="translate(16.464 151.467)">
      <path id="Path_5292" data-name="Path 5292" d="M14.4,14.4H2.667a.533.533,0,0,1-.475-.773A9.675,9.675,0,0,0,3.2,9.36V7.467a5.333,5.333,0,0,1,10.667,0V9.349a9.675,9.675,0,0,0,1.008,4.267.533.533,0,0,1-.475.784ZM3.493,13.333h10.08A10.741,10.741,0,0,1,12.8,9.349V7.467a4.267,4.267,0,0,0-8.533,0V9.349a10.741,10.741,0,0,1-.773,3.984Z" fill="#101820"/>
      <path id="Path_5293" data-name="Path 5293" d="M8.533,16.533a2.667,2.667,0,0,1-2.667-2.667.533.533,0,1,1,1.067,0A1.6,1.6,0,0,0,7.4,15a1.643,1.643,0,0,0,2.261,0,.536.536,0,1,1,.757.757A2.667,2.667,0,0,1,8.533,16.533Z" fill="#101820"/>
      <path id="Path_5294" data-name="Path 5294" d="M8.533,3.2A.533.533,0,0,1,8,2.667v-1.6a.533.533,0,1,1,1.067,0v1.6A.533.533,0,0,1,8.533,3.2Z" fill="#101820"/>
    </g>
  </g>
</svg>
