<svg xmlns="http://www.w3.org/2000/svg" xmlns:xlink="http://www.w3.org/1999/xlink" width="18" height="18" viewBox="0 0 18 18">
  <defs>
    <clipPath id="clip-path">
      <rect id="Rectangle_19" data-name="Rectangle 19" width="18" height="18" transform="translate(433 39)" fill="#fff"/>
    </clipPath>
  </defs>
  <g id="Mask_Group_15" data-name="Mask Group 15" transform="translate(-433 -39)" clip-path="url(#clip-path)">
    <g id="_9023960_push_pin_fill_icon" data-name="9023960_push_pin_fill_icon" transform="translate(433 39)">
      <rect id="Rectangle_35" data-name="Rectangle 35" width="18" height="18" fill="none"/>
      <path id="Path_28" data-name="Path 28" d="M16.313,7.545,12.2,11.658a4.368,4.368,0,0,1-.928,4.219,1.146,1.146,0,0,1-.823.45h-.077A1.132,1.132,0,0,1,9.577,16L6.188,12.607,3.776,15.026a.577.577,0,0,1-.8,0,.57.57,0,0,1,0-.8l2.419-2.412-3.4-3.4a1.118,1.118,0,0,1,.091-1.673,4.493,4.493,0,0,1,4.247-.921l4.127-4.127h0a1.132,1.132,0,0,1,1.589,0l4.268,4.268a1.118,1.118,0,0,1,0,1.589Z" fill="#fff"/>
    </g>
  </g>
</svg>
