<svg xmlns="http://www.w3.org/2000/svg" xmlns:xlink="http://www.w3.org/1999/xlink" width="16" height="16" viewBox="0 0 16 16">
  <defs>
    <clipPath id="clip-path">
      <rect id="Rectangle_11" data-name="Rectangle 11" width="16" height="16" transform="translate(385 191)" fill="#4415cb"/>
    </clipPath>
  </defs>
  <g id="Mask_Group_3" data-name="Mask Group 3" transform="translate(-385 -191)" clip-path="url(#clip-path)">
    <g id="_7720229_robot_bot_face_icon" data-name="7720229_robot_bot_face_icon" transform="translate(383.857 190.238)">
      <path id="Path_15" data-name="Path 15" d="M14.714,16.762H3.571a2.286,2.286,0,0,1-2.286-2.286V3.333A2.286,2.286,0,0,1,3.571,1.048H14.714A2.286,2.286,0,0,1,17,3.333V14.476A2.286,2.286,0,0,1,14.714,16.762ZM3.571,2.571a.762.762,0,0,0-.762.762V14.476a.762.762,0,0,0,.762.762H14.714a.762.762,0,0,0,.762-.762V3.333a.762.762,0,0,0-.762-.762Z" fill="#989898"/>
      <path id="Path_16" data-name="Path 16" d="M10.136,7.672,4,4v7.345Z" transform="translate(2.472 1.089)" fill="none" stroke="#989898" stroke-linejoin="round" stroke-miterlimit="10" stroke-width="1.4"/>
    </g>
  </g>
</svg>
