<svg id="_4781840___add_circle_create_expand_icon_3_" data-name="4781840_+_add_circle_create_expand_icon (3)" xmlns="http://www.w3.org/2000/svg" width="20" height="20" viewBox="0 0 20 20">
  <g id="Layer_2" data-name="Layer 2" transform="translate(1.882 1.882)">
    <path id="Path_29" data-name="Path 29" d="M11.154,19.308a8.154,8.154,0,1,1,8.154-8.154,8.154,8.154,0,0,1-8.154,8.154Zm0-15.053a6.9,6.9,0,1,0,6.9,6.9A6.9,6.9,0,0,0,11.154,4.254Z" transform="translate(-3 -3)" fill="#4415cb"/>
    <path id="Path_30" data-name="Path 30" d="M15.627,17.781A.627.627,0,0,1,15,17.154V9.627a.627.627,0,0,1,1.254,0v7.527A.627.627,0,0,1,15.627,17.781Z" transform="translate(-7.473 -5.237)" fill="#4415cb"/>
    <path id="Path_31" data-name="Path 31" d="M17.154,16.254H9.627a.627.627,0,1,1,0-1.254h7.527a.627.627,0,1,1,0,1.254Z" transform="translate(-5.237 -7.473)" fill="#4415cb"/>
  </g>
  <g id="frame">
    <rect id="Rectangle_39" data-name="Rectangle 39" width="20" height="20" fill="none"/>
  </g>
</svg>
