<svg xmlns="http://www.w3.org/2000/svg" xmlns:xlink="http://www.w3.org/1999/xlink" width="16" height="16" viewBox="0 0 16 16">
  <defs>
    <clipPath id="clip-path">
      <rect id="Rectangle_3" data-name="Rectangle 3" width="16" height="16" transform="translate(17 153)" fill="#4415cb"/>
    </clipPath>
  </defs>
  <g id="Mask_Group_3418" data-name="Mask Group 3418" transform="translate(-17 -153)" clip-path="url(#clip-path)">
    <path id="_8674447_ic_fluent_clipboard_task_regular_icon" data-name="8674447_ic_fluent_clipboard_task_regular_icon" d="M13.624,8.824a.6.6,0,0,0-.848-.849L8.8,11.951,7.224,10.376a.6.6,0,1,0-.849.848l2,2a.6.6,0,0,0,.848,0ZM12.8,3.268A1.8,1.8,0,0,0,11,1.6H8.2A1.8,1.8,0,0,0,6.411,3.2H4A1.8,1.8,0,0,0,2.2,5V15.8A1.8,1.8,0,0,0,4,17.6H15.2A1.8,1.8,0,0,0,17,15.8V5a1.8,1.8,0,0,0-1.8-1.8H12.789Q12.793,3.233,12.8,3.268Zm0,.009,0,.123Q12.8,3.338,12.8,3.277ZM8.2,5.2H11a1.8,1.8,0,0,0,1.5-.8h2.7a.6.6,0,0,1,.6.6V15.8a.6.6,0,0,1-.6.6H4a.6.6,0,0,1-.6-.6V5A.6.6,0,0,1,4,4.4H6.7A1.8,1.8,0,0,0,8.2,5.2Zm0-2.4H11A.6.6,0,1,1,11,4H8.2a.6.6,0,0,1,0-1.2Z" transform="translate(15.4 151.4)" fill="#4415cb"/>
  </g>
</svg>
